<svg version="1.1" id="Layer_1" xmlns="http://www.w3.org/2000/svg" xmlns:xlink="http://www.w3.org/1999/xlink" x="0px" y="0px"
	 viewBox="0 0 330 52" style="enable-background:new 0 0 330 52;" xml:space="preserve">
<style type="text/css">
	.its{fill-rule:evenodd;clip-rule:evenodd;}
</style>
<g id="IT Solver">
<path class="its" d="M46.4,39.8V90.2H35V39.8H46.4Z" transform="translate(-35 -39)"/>
<path class="its" d="M66,49.4H52.5V39.8H91.2v9.6H77.4V90.2H66Z" transform="translate(-35 -39)"/>
<path class="its" d="M112.7,78.4a29.1,29.1,0,0,0,12.6,3.1c5.2,0,8-2.2,8-5.5s-2.4-4.9-8.4-7.1c-8.3-2.9-13.8-7.5-13.8-14.9S118.2,39,130.1,39A30.6,30.6,0,0,1,143,41.5l-2.6,9.2a23.9,23.9,0,0,0-10.5-2.4c-4.9,0-7.3,2.2-7.3,4.9s2.8,4.6,9.3,7.1c8.9,3.3,13.1,7.9,13.1,15s-6.5,15.6-20.3,15.6c-5.8,0-11.4-1.5-14.3-3.1Z" transform="translate(-35 -39)"/>
<path class="its" d="M198.8,64.5C198.8,81,188.8,91,174,91s-23.7-11.3-23.7-25.6S160,39,174.8,39,198.8,50.6,198.8,64.5Zm-36.4.7C162.4,75,167,82,174.6,82s12.1-7.3,12.1-17.1S182.4,48,174.6,48,162.4,55.4,162.4,65.1Z" transform="translate(-35 -39)"/>
<path class="its" d="M206.2,39.8h11.4V80.6h20v9.6H206.2Z" transform="translate(-35 -39)"/>
<path class="its" d="M251.4,90.2,235.3,39.8h12.5l6.1,21.3c1.7,6,3.3,11.7,4.5,18h.2c1.3-6,2.9-12,4.6-17.8l6.4-21.5h12.1l-17,50.4H251.4Z" transform="translate(-35 -39)"/>
<path class="its" d="M317,68.9H298.5v12h20.7v9.3H287.1V39.8h31.1v9.3H298.5V59.6H317v9.3Z" transform="translate(-35 -39)"/>
<path class="its" d="M327,40.5a100.1,100.1,0,0,1,15.2-1c7.5,0,12.7,1.1,16.3,4s4.6,5.9,4.6,10.5a13.4,13.4,0,0,1-8.9,12.4v.2c3.5,1.4,5.5,4.8,6.7,9.4S364,88.2,365,90.2H353.3c-.8-1.4-2-5.5-3.5-11.7s-3.5-8-8.2-8.1h-3.4V90.2H327Zm11.3,21.7h4.5c5.7,0,9-2.8,9-7.2s-3.1-6.9-8.4-7a28.4,28.4,0,0,0-5.2.4V62.2Z" transform="translate(-35 -39)"/>
</g>
</svg>