<svg id="Layer_1" data-name="Layer 1" xmlns="http://www.w3.org/2000/svg" xmlns:xlink="http://www.w3.org/1999/xlink" viewBox="0 0 212.6 43.26"><defs><style>.cls-1{fill:url(#linear-gradient);}.cls-2{fill:#2ba8e0;}.cls-3{fill:#fff;}.cls-4{fill:url(#linear-gradient-2);}</style><linearGradient id="linear-gradient" y1="21.63" x2="63.46" y2="21.63" gradientUnits="userSpaceOnUse"><stop offset="0.22" stop-color="#2ba8e0"/><stop offset="0.89" stop-color="#fff"/></linearGradient><linearGradient id="linear-gradient-2" x1="160.63" y1="33.29" x2="160.63" y2="16.67" gradientUnits="userSpaceOnUse"><stop offset="0" stop-color="#003d84"/><stop offset="1" stop-color="#28aae1"/></linearGradient></defs><title>it_solver_logo_horizontal_no_tagline_reverse</title><path class="cls-1" d="M31.76,43.26h0a.52.52,0,0,1-.3-.07L.26,25.26A.51.51,0,0,1,0,24.82V18.47A.51.51,0,0,1,.25,18L31.34.07A.51.51,0,0,1,31.6,0h.07a.53.53,0,0,1,.3.07L63.21,18a.51.51,0,0,1,.26.44v6.29a.51.51,0,0,1-.26.44L32,43.19A.51.51,0,0,1,31.76,43.26ZM1.63,24.82l29.62,17V36.21L11.51,25a.51.51,0,0,1,0-.89l14.06-8.19,0-4.82ZM32.27,36.21v5.6L62.35,24.44V19.37ZM12.78,24.54l19,10.78L61.87,18.47,32.2,1.43V29.54a.51.51,0,0,1-.76.44L17.34,21.89ZM26.58,26l4.6,2.64V1.41L1.11,18.77v5.17L25.86,9.77a.51.51,0,0,1,.76.45l0,6Zm-8.22-4.72,7.2,4.13V17.1Zm19,5.52a.51.51,0,0,1-.51-.51L37,10a.51.51,0,0,1,.76-.44l14.14,8.05a.51.51,0,0,1,0,.89l-5.8,3.35h0l-8.43,4.87A.51.51,0,0,1,37.39,26.81ZM38,17.65l0,7.77,6.89-4Zm0-1.16,7.87,4.36,4.78-2.76L38,10.9Z"/><rect class="cls-2" x="76.69" y="16.67" width="4.24" height="17.01"/><path class="cls-2" d="M78.81,9a2.82,2.82,0,0,0,0,5.64,2.82,2.82,0,1,0,0-5.64Z"/><path class="cls-2" d="M97.87,29.74l-.64-.28-.18.18a2.45,2.45,0,0,1-1.6.64c-1.33,0-2-.75-2-2.37V20.16h4.95V16.67H93.5V11.73L93,11.34l-3.75.45v4.88H86.46v3.49h2.77v8c0,3.66,2.2,5.93,5.73,5.93a6.05,6.05,0,0,0,3.81-1.28l.08-.07.18-.53Z"/><path class="cls-3" d="M111.85,23.21l-.33-.14c-1.78-.73-2.7-1.15-2.7-2s.82-1.33,2-1.33a4.78,4.78,0,0,1,3.59,1.79l.11.13h.58l2-1.93v-.56l-.06-.09a7.69,7.69,0,0,0-6.16-2.86c-3.76,0-6.29,2-6.29,5.05,0,3.25,3,4.35,5.34,5.22l.17.07c1.81.7,2.92,1.19,2.92,2.36,0,.93-1,1.56-2.44,1.56a5.53,5.53,0,0,1-4.24-2l-.11-.15h-.63l-2,2v.53l.07.1a8.72,8.72,0,0,0,7,3.14c3.92,0,6.55-2.06,6.55-5.12C117.25,25.43,114.51,24.3,111.85,23.21Z"/><path class="cls-3" d="M131.39,16.27a8.9,8.9,0,1,0,9.19,8.89A8.83,8.83,0,0,0,131.39,16.27Zm0,14a4.82,4.82,0,0,1-4.88-5.08,4.9,4.9,0,1,1,9.8,0A4.83,4.83,0,0,1,131.39,30.25Z"/><polygon class="cls-3" points="150.44 10.72 146.72 11.17 146.72 33.67 150.96 33.67 150.96 11.12 150.44 10.72"/><path class="cls-3" d="M186.65,16.27a8.56,8.56,0,0,0-8.76,8.93c0,5.14,3.84,8.86,9.12,8.86,2.41,0,5.66-.85,7.55-3.23l.08-.1v-.55l-2-1.83H192l-.11.13a6.45,6.45,0,0,1-4.8,2,4.76,4.76,0,0,1-4.94-4.1H195l.06-.28a5.83,5.83,0,0,0,.11-1.22,8.67,8.67,0,0,0-2.52-6.28A8.45,8.45,0,0,0,186.65,16.27Zm-.07,3.49a4.31,4.31,0,0,1,3.2,1.26,4.36,4.36,0,0,1,1.13,2.22h-8.68A4.25,4.25,0,0,1,186.58,19.77Z"/><path class="cls-3" d="M212.29,16.88l-.09,0a5.82,5.82,0,0,0-2.6-.56,5.3,5.3,0,0,0-4,1.82V16.67h-3.85v17H206V24.29c0-2.49,1.31-4.16,3.25-4.16a2.9,2.9,0,0,1,1.6.33l.16.1.61-.27,1-2.92Z"/><polygon class="cls-4" points="165.07 27.95 160.45 16.66 156.56 16.66 156.19 17.26 163.55 33.29 163.55 33.29 163.14 32.41 165.07 27.95"/><polygon class="cls-2" points="173.53 16.66 169.95 16.66 165.07 27.95 163.14 32.41 163.55 33.29 163.72 33.67 166.4 33.67 173.91 17.26 173.53 16.66"/></svg>