<svg id="Layer_1" data-name="Layer 1" xmlns="http://www.w3.org/2000/svg" xmlns:xlink="http://www.w3.org/1999/xlink" viewBox="0 0 215.25 43.26"><defs><style>.cls-1{fill:url(#linear-gradient);}.cls-2{fill:#2ba8e0;}.cls-3{fill:#003d84;}.cls-4{fill:url(#linear-gradient-2);}</style><linearGradient id="linear-gradient" x1="1.27" y1="21.63" x2="64.73" y2="21.63" gradientUnits="userSpaceOnUse"><stop offset="0.22" stop-color="#2ba8e0"/><stop offset="0.89" stop-color="#003d84"/></linearGradient><linearGradient id="linear-gradient-2" x1="161.89" y1="33.29" x2="161.89" y2="16.67" gradientUnits="userSpaceOnUse"><stop offset="0" stop-color="#003d84"/><stop offset="1" stop-color="#28aae1"/></linearGradient></defs><title>it_solver_logo_horizontal_no_tagline</title><path class="cls-1" d="M33,43.26h0a.52.52,0,0,1-.3-.07L1.52,25.26a.51.51,0,0,1-.26-.44V18.47A.51.51,0,0,1,1.52,18L32.61.07A.51.51,0,0,1,32.86,0h.07a.53.53,0,0,1,.3.07L64.47,18a.51.51,0,0,1,.26.44v6.29a.51.51,0,0,1-.26.44l-31.19,18A.51.51,0,0,1,33,43.26ZM2.89,24.82l29.62,17V36.21L12.77,25a.51.51,0,0,1,0-.89l14.06-8.19,0-4.82ZM33.54,36.21v5.6L63.62,24.44V19.37ZM14,24.54,33,35.33,63.14,18.47l-29.68-17V29.54a.51.51,0,0,1-.76.44L18.61,21.89ZM27.85,26l4.6,2.64V1.41L2.38,18.77v5.17L27.13,9.77a.51.51,0,0,1,.76.45l0,6Zm-8.22-4.72,7.2,4.13V17.1Zm19,5.52a.51.51,0,0,1-.51-.51L38.24,10A.51.51,0,0,1,39,9.59l14.14,8.05a.51.51,0,0,1,0,.89l-5.8,3.35h0l-8.43,4.87A.51.51,0,0,1,38.66,26.81Zm.56-9.17,0,7.77,6.89-4Zm0-1.16,7.87,4.36,4.78-2.76L39.26,10.9Z"/><rect class="cls-2" x="77.95" y="16.67" width="4.24" height="17.01"/><path class="cls-2" d="M80.07,9a2.82,2.82,0,0,0,0,5.64,2.82,2.82,0,1,0,0-5.64Z"/><path class="cls-2" d="M99.13,29.74l-.64-.28-.18.18a2.45,2.45,0,0,1-1.6.64c-1.33,0-2-.75-2-2.37V20.16h4.95V16.67H94.77V11.73l-.52-.39-3.75.45v4.88H87.72v3.49h2.77v8c0,3.66,2.2,5.93,5.73,5.93A6.05,6.05,0,0,0,100,32.78l.08-.07.18-.53Z"/><path class="cls-3" d="M113.12,23.21l-.33-.14c-1.78-.73-2.7-1.15-2.7-2s.82-1.33,2-1.33a4.78,4.78,0,0,1,3.59,1.79l.11.13h.58l2-1.93v-.56l-.06-.09a7.69,7.69,0,0,0-6.16-2.86c-3.76,0-6.29,2-6.29,5.05,0,3.25,3,4.35,5.34,5.22l.17.07c1.81.7,2.92,1.19,2.92,2.36,0,.93-1,1.56-2.44,1.56a5.53,5.53,0,0,1-4.24-2l-.11-.15h-.63l-2,2v.53l.07.1a8.72,8.72,0,0,0,7,3.14c3.92,0,6.55-2.06,6.55-5.12C118.52,25.43,115.77,24.3,113.12,23.21Z"/><path class="cls-3" d="M132.65,16.27a8.9,8.9,0,1,0,9.19,8.89A8.83,8.83,0,0,0,132.65,16.27Zm0,14a4.82,4.82,0,0,1-4.88-5.08,4.9,4.9,0,1,1,9.8,0A4.83,4.83,0,0,1,132.65,30.25Z"/><polygon class="cls-3" points="151.71 10.72 147.99 11.17 147.99 33.67 152.23 33.67 152.23 11.12 151.71 10.72"/><path class="cls-3" d="M187.91,16.27a8.56,8.56,0,0,0-8.76,8.93c0,5.14,3.84,8.86,9.12,8.86,2.41,0,5.66-.85,7.55-3.23l.08-.1v-.55l-2-1.83h-.6l-.11.13a6.45,6.45,0,0,1-4.8,2,4.76,4.76,0,0,1-4.94-4.1h12.88l.06-.28a5.83,5.83,0,0,0,.11-1.22A8.67,8.67,0,0,0,194,18.62,8.45,8.45,0,0,0,187.91,16.27Zm-.07,3.49A4.31,4.31,0,0,1,191,21a4.36,4.36,0,0,1,1.13,2.22h-8.68A4.25,4.25,0,0,1,187.85,19.77Z"/><path class="cls-3" d="M213.55,16.88l-.09,0a5.82,5.82,0,0,0-2.6-.56,5.3,5.3,0,0,0-4,1.82V16.67H203v17h4.27V24.29c0-2.49,1.31-4.16,3.25-4.16a2.9,2.9,0,0,1,1.6.33l.16.1.61-.27,1-2.92Z"/><polygon class="cls-4" points="166.34 27.95 161.72 16.66 157.82 16.66 157.45 17.26 164.81 33.29 164.81 33.29 164.41 32.41 166.34 27.95"/><polygon class="cls-2" points="174.8 16.66 171.22 16.66 166.34 27.95 164.41 32.41 164.81 33.29 164.99 33.67 167.67 33.67 175.17 17.26 174.8 16.66"/></svg>