<svg xmlns="http://www.w3.org/2000/svg" viewBox="0 0 63.46 43.26">
<path fill="#000000" d="M31.76,43.26h0a.52.52,0,0,1-.3-.07L.26,25.26A.51.51,0,0,1,0,24.82V18.47A.51.51,0,0,1,.25,18L31.34.07A.51.51,0,0,1,31.6,0h.07a.53.53,0,0,1,.3.07L63.21,18a.51.51,0,0,1,.26.44v6.29a.51.51,0,0,1-.26.44L32,43.19A.51.51,0,0,1,31.76,43.26ZM1.63,24.82l29.62,17V36.21L11.51,25a.51.51,0,0,1,0-.89l14.06-8.19,0-4.82ZM32.27,36.21v5.6L62.35,24.44V19.37ZM12.78,24.54l19,10.78L61.87,18.47,32.2,1.43V29.54a.51.51,0,0,1-.76.44L17.34,21.89ZM26.58,26l4.6,2.64V1.41L1.11,18.77v5.17L25.86,9.77a.51.51,0,0,1,.76.45l0,6Zm-8.22-4.72,7.2,4.13V17.1Zm19,5.52a.51.51,0,0,1-.51-.51L37,10a.51.51,0,0,1,.76-.44l14.14,8.05a.51.51,0,0,1,0,.89l-5.8,3.35h0l-8.43,4.87A.51.51,0,0,1,37.39,26.81ZM38,17.65l0,7.77,6.89-4Zm0-1.16,7.87,4.36,4.78-2.76L38,10.9Z"/>
</svg>
